<svg width="508" height="508" viewBox="0 0 508 508" fill="none" xmlns="http://www.w3.org/2000/svg">
<path fill-rule="evenodd" clip-rule="evenodd" d="M226.787 1.03465C225.205 1.95765 223.738 6.09365 217.026 28.5597L214.909 35.6457L208.396 36.8457C204.814 37.5057 196.669 39.6257 190.298 41.5577L178.713 45.0687L175.619 42.2717C173.918 40.7327 168.435 35.5906 163.436 30.8446C158.436 26.0996 153.372 21.9076 152.182 21.5306C150.524 21.0036 144.863 23.8177 127.914 33.5927C115.756 40.6057 105.171 47.3157 104.392 48.5037C103.131 50.4287 103.407 52.4926 106.903 67.2946L110.83 83.9236L97.2732 97.3956L83.7152 110.867L67.2103 106.903C52.3413 103.332 50.4862 103.083 48.4912 104.391C47.2722 105.189 40.5583 115.768 33.5703 127.899C23.5813 145.239 21.0142 150.439 21.5682 152.215C21.9562 153.458 26.1522 158.524 30.8932 163.474C35.6342 168.424 40.7692 173.871 42.3062 175.578L45.0993 178.683L41.5882 190.268C39.6562 196.639 37.5363 204.784 36.8763 208.366L35.6763 214.879L28.5903 216.996C5.08025 224.02 1.98825 225.136 1.01925 226.947C-0.33975 229.485 -0.33975 278.463 1.01925 281.001C1.98825 282.812 5.08025 283.928 28.5903 290.952L35.6763 293.069L36.8763 299.582C37.5363 303.164 39.6562 311.309 41.5882 317.68L45.0993 329.265L42.3022 332.359C40.7632 334.06 35.6212 339.543 30.8752 344.542C26.1302 349.542 21.9382 354.606 21.5612 355.796C21.0342 357.454 23.8482 363.115 33.6232 380.064C40.6362 392.222 47.3462 402.807 48.5342 403.586C50.4592 404.847 52.5213 404.571 67.3053 401.08L83.9143 397.157L97.4183 410.661L110.921 424.164L106.945 440.718C103.358 455.656 103.112 457.49 104.426 459.495C105.227 460.717 115.819 467.427 127.964 474.406C145.158 484.286 150.54 486.941 152.275 486.4C153.501 486.018 158.554 481.826 163.504 477.085C168.454 472.344 173.901 467.209 175.608 465.672L178.713 462.879L190.268 466.381C196.623 468.308 204.757 470.395 208.344 471.019L214.864 472.155L217.004 479.314C224.058 502.922 225.165 505.99 226.977 506.959C228.115 507.568 238.921 507.974 254.004 507.974C269.087 507.974 279.893 507.568 281.031 506.959C282.841 505.991 283.964 502.88 290.965 479.443L293.066 472.412L301.714 470.632C306.47 469.653 314.602 467.493 319.784 465.833L329.206 462.815L331.855 465.133C333.312 466.408 338.554 471.328 343.504 476.066C353.439 485.575 355.977 487.288 358.682 486.304C363.546 484.534 402.4 461.3 403.627 459.427C404.873 457.525 404.588 455.401 401.11 440.673L397.187 424.064L410.688 410.563L424.189 397.062L440.816 400.989C455.559 404.471 457.687 404.757 459.588 403.511C460.767 402.738 467.45 392.18 474.438 380.049C484.427 362.709 486.994 357.509 486.44 355.733C486.052 354.49 481.856 349.424 477.115 344.474C472.374 339.524 467.239 334.077 465.702 332.37L462.909 329.265L466.42 317.68C468.352 311.309 470.472 303.164 471.132 299.582L472.332 293.069L479.418 290.952C502.928 283.928 506.02 282.812 506.989 281.001C508.348 278.463 508.348 229.485 506.989 226.947C506.02 225.136 502.928 224.02 479.418 216.996L472.332 214.879L471.132 208.366C470.472 204.784 468.352 196.639 466.42 190.268L462.909 178.683L465.703 175.578C467.24 173.871 472.145 168.649 476.602 163.974C485.625 154.51 487.311 151.964 486.32 149.296C484.455 144.274 461.335 105.581 459.468 104.359C457.551 103.102 455.468 103.381 440.683 106.873L424.054 110.8L410.585 97.2447L397.115 83.6897L401.031 67.1116C404.509 52.3816 404.789 50.2937 403.535 48.3797C402.758 47.1957 392.209 40.5097 380.091 33.5237C362.674 23.4817 357.582 20.9707 355.781 21.5326C354.529 21.9226 349.454 26.1216 344.504 30.8626C339.554 35.6037 334.091 40.7547 332.364 42.3097L329.223 45.1377L319.793 42.1167C314.606 40.4557 306.47 38.2947 301.714 37.3157L293.066 35.5357L290.965 28.5047C283.964 5.06765 282.841 1.95665 281.031 0.98865C278.516 -0.35835 229.104 -0.31535 226.787 1.03465ZM285.303 90.9176C301.061 94.0506 312.717 98.1047 328.504 105.942C360.466 121.81 386.169 147.513 402.036 179.474C409.905 195.324 413.923 206.91 417.209 223.219C420.455 239.329 420.447 268.395 417.192 284.706C408.373 328.895 382.742 367.41 345.504 392.43C336.154 398.712 316.648 408.151 305.332 411.87C287.852 417.614 275.708 419.401 254.004 419.425C237.652 419.444 232.687 419.081 223.249 417.179C171.489 406.751 128.805 374.465 105.972 328.474C98.0993 312.615 94.0803 301.024 90.8043 284.729C87.5403 268.495 87.5403 239.453 90.8043 223.219C94.0803 206.924 98.0993 195.333 105.972 179.474C121.84 147.512 147.543 121.809 179.504 105.942C198.58 96.4717 216.104 91.1856 237.004 88.5976C246.207 87.4576 274.81 88.8316 285.303 90.9176ZM240.004 100.64C214.548 103.152 189.022 112.393 166.957 127.084C154.367 135.467 135.497 154.337 127.114 166.927C114.939 185.213 106.489 205.768 102.429 226.974C99.9003 240.179 99.9003 267.769 102.429 280.974C111.72 329.502 142.38 370.273 185.504 391.447C199.637 398.386 209.348 401.729 225.231 405.121C239.061 408.075 266.772 408.291 281.004 405.556C368.844 388.676 424.224 303.744 403.419 217.819C391.783 169.763 357.497 130.084 311.355 111.272C290.467 102.757 261.815 98.4866 240.004 100.64ZM280.004 126.504C325.851 136.429 362.73 169.203 377.379 213.04C382.152 227.325 383.487 236.269 383.487 253.974C383.487 266.109 383.008 272.722 381.675 278.974C375.981 305.683 364.786 326.323 345.569 345.539C326.28 364.829 305.814 375.93 279.004 381.645C267.148 384.173 240.86 384.173 229.004 381.645C201.759 375.837 179.759 363.74 160.775 344.128C142.734 325.49 131.867 304.934 126.333 278.974C123.805 267.118 123.805 240.83 126.333 228.974C131.765 203.495 142.648 182.659 159.974 164.568C180.709 142.918 204.469 130.425 234.504 125.379C244.738 123.66 269.72 124.278 280.004 126.504ZM262.004 162.25C247.323 167.273 236.803 176.474 230.073 190.175C219.235 212.238 223.476 235.101 242.754 258.538L248.004 264.921V297.179V329.438L237.644 319.114L227.285 308.79L226.648 300.507C224.015 266.253 203.364 242.885 173.504 240.371C157.119 238.992 134.737 248.156 136.181 255.654C136.369 256.632 139.057 259.109 142.154 261.158C148.664 265.466 151.177 269.085 153.997 278.215C160.618 299.651 182.052 314.127 210.749 316.543L218.504 317.196L233.254 331.822L248.004 346.449V359.211V371.974H254.004H260.004V359.211V346.449L274.754 331.822L289.504 317.196L297.259 316.543C326.093 314.115 347.359 299.753 354.011 278.215C356.831 269.085 359.344 265.466 365.854 261.158C372.075 257.041 372.985 255.12 370.504 251.334C367.19 246.276 349.204 240.009 338.004 240.009C319.43 240.009 298.904 252.272 290.314 268.501C285.993 276.666 282.131 290.468 281.36 300.507L280.723 308.79L270.364 319.114L260.004 329.438V297.116V264.793L264.386 259.633C274.936 247.211 281.34 234.043 283.269 220.811C284.783 210.426 283.425 202.743 277.992 190.949C274.099 182.497 273.823 181.343 274.327 175.641C274.626 172.249 275.17 168.281 275.536 166.822C276.028 164.857 275.656 163.626 274.102 162.072C271.486 159.456 270.108 159.477 262.004 162.25Z" fill="#41493B"/>
</svg>
